PathFileType	4	(X/Y/Z)	D:\Documents\paper\Opensim\Pipline\Result\suihongtao\30DJ0001\original_data\suihongtao_30DJ0001_static.trc	
DataRate	CameraRate	NumFrames	NumMarkers	Units	OrigDataRate	OrigDataStartFrame	OrigNumFrames	
200	200	11	27	mm	200	692	1108	
Frame#	Time	Top.Head			L.Acromium			R.Acromium			Sternum			L.ASIS			R.ASIS			L.PSIS			R.PSIS			V.Sacral			L.Thigh.Front			L.Knee.Lat			L.Knee.Med			L.Shank.Front			L.Ankle.Lat			L.Ankle.Med			L.Heel			L.Toe.Lat			L.Toe.Tip			R.Thigh.Front			R.Knee.Lat			R.Knee.Med			R.Shank.Front			R.Ankle.Lat			R.Ankle.Med			R.Heel			R.Toe.Lat			R.Toe.Tip
		X1	Y1	Z1	X2	Y2	Z2	X3	Y3	Z3	X4	Y4	Z4	X5	Y5	Z5	X6	Y6	Z6	X7	Y7	Z7	X8	Y8	Z8	X9	Y9	Z9	X10	Y10	Z10	X11	Y11	Z11	X12	Y12	Z12	X13	Y13	Z13	X14	Y14	Z14	X15	Y15	Z15	X16	Y16	Z16	X17	Y17	Z17	X18	Y18	Z18	X19	Y19	Z19	X20	Y20	Z20	X21	Y21	Z21	X22	Y22	Z22	X23	Y23	Z23	X24	Y24	Z24	X25	Y25	Z25	X26	Y26	Z26	X27	Y27	Z27
693	3.460000	346.260098	1628.389707	-772.876034	205.766927	1312.785056	-643.139138	489.537665	1310.177145	-856.824399	296.834557	1301.721348	-827.212595	182.922174	892.825528	-757.459140	359.867189	894.380176	-911.436192	363.201077	910.825870	-659.045844	439.818764	906.066614	-717.868401	401.509818	908.446361	-688.456886	211.869077	537.111348	-755.528305	214.588375	447.726775	-635.555033	325.031438	423.991556	-698.953443	238.438170	379.394607	-694.227839	224.667854	86.519534	-617.038175	276.623708	102.633034	-684.114587	292.107789	47.910616	-598.981857	143.018705	32.756501	-694.610022	165.458850	55.476538	-758.089774	359.620289	529.288031	-855.429262	487.376642	441.799198	-832.781044	397.115075	423.629463	-748.020079	435.309860	375.697477	-826.432899	505.297719	89.651720	-811.302026	431.257630	99.845496	-773.996892	501.161861	44.654481	-728.440875	473.615305	34.760738	-903.111149	388.672638	49.623353	-902.534467	
694	3.465000	346.213516	1628.392152	-772.899759	205.767220	1312.775108	-643.129463	489.534799	1310.174922	-856.804765	296.839280	1301.702700	-827.197098	182.930965	892.827449	-757.428773	359.879993	894.376633	-911.408323	363.211979	910.823989	-659.021469	439.831103	906.069405	-717.832061	401.521591	908.446736	-688.426603	211.872539	537.111041	-755.510693	214.589586	447.725987	-635.543483	325.029599	423.982442	-698.939980	238.441321	379.387162	-694.214794	224.676921	86.511658	-617.041587	276.626063	102.621354	-684.110126	292.111668	47.909058	-598.984628	143.019472	32.752221	-694.611783	165.461641	55.470117	-758.089669	359.619811	529.286373	-855.414154	487.377894	441.791115	-832.767604	397.115816	423.624519	-748.011879	435.309472	375.695969	-826.422394	505.358722	89.621330	-811.206527	431.257108	99.834553	-773.998348	501.163977	44.646860	-728.442807	473.616399	34.754692	-903.115321	388.671328	49.629845	-902.541245	
695	3.470000	346.168294	1628.395467	-772.926130	205.766716	1312.765052	-643.118025	489.529869	1310.171966	-856.784694	296.842618	1301.686366	-827.182531	182.939203	892.827836	-757.398288	359.891646	894.373276	-911.380985	363.220522	910.821250	-658.997842	439.844141	906.071263	-717.797469	401.532526	908.446186	-688.397535	211.876269	537.105935	-755.496430	214.591800	447.722698	-635.531431	325.029129	423.971505	-698.922548	238.446318	379.379906	-694.198787	224.685048	86.507538	-617.045226	276.627580	102.609692	-684.103632	292.116762	47.907617	-598.988236	143.021608	32.748255	-694.613850	165.463222	55.463870	-758.089885	359.618760	529.284674	-855.400189	487.378228	441.784403	-832.755764	397.119406	423.614728	-748.004110	435.309291	375.693360	-826.412564	505.387050	89.603536	-811.158088	431.256277	99.826406	-774.002629	501.166458	44.641544	-728.444322	473.618597	34.751710	-903.117210	388.671756	49.639614	-902.546576	
696	3.475000	346.124382	1628.398452	-772.954068	205.765010	1312.755713	-643.106296	489.523749	1310.168062	-856.764149	296.842996	1301.672196	-827.167682	182.947308	892.825735	-757.367044	359.900981	894.371468	-911.353036	363.227704	910.819012	-658.972578	439.855870	906.071347	-717.766508	401.542084	908.445011	-688.369403	211.879953	537.100073	-755.484018	214.595480	447.716733	-635.517852	325.031360	423.960747	-698.902026	238.453142	379.374806	-694.180458	224.690643	86.507409	-617.048091	276.627441	102.599179	-684.097680	292.122214	47.907302	-598.992337	143.023827	32.744842	-694.616308	165.463974	55.457958	-758.089967	359.618345	529.282992	-855.388152	487.379155	441.781072	-832.745225	397.123344	423.604535	-747.996931	435.310008	375.689503	-826.401733	505.378293	89.600560	-811.167970	431.255894	99.823041	-774.009885	501.168330	44.639438	-728.444704	473.620981	34.752338	-903.116075	388.674471	49.648402	-902.549892	
697	3.480000	346.080621	1628.400616	-772.982618	205.761033	1312.746918	-643.095841	489.518393	1310.163820	-856.743392	296.841104	1301.658971	-827.152060	182.955641	892.821496	-757.335302	359.908435	894.371986	-911.323894	363.234972	910.818121	-658.945021	439.864819	906.069654	-717.739223	401.550234	908.443682	-688.341927	211.882326	537.096412	-755.472075	214.600148	447.709657	-635.502185	325.036754	423.952027	-698.881407	238.461356	379.372139	-694.160524	224.692254	86.509759	-617.048890	276.625741	102.590520	-684.094417	292.126673	47.908686	-598.996248	143.024780	32.741945	-694.618489	165.464810	55.452459	-758.090222	359.619642	529.281576	-855.377584	487.381604	441.781239	-832.735027	397.126723	423.598151	-747.989330	435.311119	375.685399	-826.389044	505.328245	89.614012	-811.243494	431.256314	99.823097	-774.017489	501.168935	44.638965	-728.445180	473.622648	34.755924	-903.112509	388.677920	49.652863	-902.550872	
698	3.485000	346.036174	1628.403015	-773.011471	205.754575	1312.738151	-643.086837	489.514780	1310.160203	-856.722270	296.838891	1301.645361	-827.135577	182.963827	892.816353	-757.303975	359.915498	894.374993	-911.294266	363.242537	910.817480	-658.916494	439.870587	906.066651	-717.713989	401.556867	908.441892	-688.315005	211.883080	537.094126	-755.458440	214.604838	447.702749	-635.483793	325.044704	423.945659	-698.862321	238.470195	379.371452	-694.140033	224.689754	86.512995	-617.046785	276.623385	102.583894	-684.093354	292.128701	47.911134	-598.999253	143.023860	32.739918	-694.619935	165.465594	55.448121	-758.091435	359.623661	529.281058	-855.366419	487.385866	441.782522	-832.723670	397.129205	423.597405	-747.980472	435.311961	375.683019	-826.375416	505.236178	89.642450	-811.382523	431.257653	99.825459	-774.022490	501.167726	44.637691	-728.447411	473.623519	34.761371	-903.108478	388.680028	49.653027	-902.550000	
699	3.490000	345.992151	1628.406560	-773.040255	205.746821	1312.729016	-643.078146	489.511827	1310.157811	-856.700053	296.837962	1301.630963	-827.118279	182.971543	892.811545	-757.273995	359.923454	894.380471	-911.265712	363.249525	910.815497	-658.888121	439.874517	906.063223	-717.689147	401.562223	908.439252	-688.288395	211.884624	537.090472	-755.439778	214.608555	447.696322	-635.462553	325.053606	423.940731	-698.844552	238.478404	379.372025	-694.119826	224.684691	86.515748	-617.042293	276.621607	102.578650	-684.091711	292.127176	47.913563	-599.000505	143.021571	32.739301	-694.621220	165.465225	55.446140	-758.093872	359.630101	529.281910	-855.352642	487.392113	441.782719	-832.709975	397.129341	423.601791	-747.971445	435.313097	375.683968	-826.362351	505.121482	89.677266	-811.552183	431.259940	99.829530	-774.024128	501.164625	44.635369	-728.450986	473.624235	34.767346	-903.106284	388.679958	49.652075	-902.549075	
700	3.495000	345.951055	1628.410952	-773.068504	205.739036	1312.720249	-643.068232	489.507924	1310.156502	-856.676250	296.838388	1301.616393	-827.100082	182.979316	892.808134	-757.245219	359.932959	894.387910	-911.239145	363.255862	910.811973	-658.858641	439.879174	906.060866	-717.664065	401.567597	908.436376	-688.261141	211.890232	537.084381	-755.413862	214.611871	447.690712	-635.439236	325.061970	423.936578	-698.827170	238.485108	379.372900	-694.100482	224.678656	86.516590	-617.036911	276.621095	102.573615	-684.087413	292.122089	47.915197	-598.999540	143.019223	32.740179	-694.623269	165.463227	55.446933	-758.096854	359.637955	529.284110	-855.335685	487.400085	441.782924	-832.694705	397.126588	423.608720	-747.964227	435.315988	375.687909	-826.350342	505.035291	89.701873	-811.674975	431.263128	99.832633	-774.022941	501.160551	44.633760	-728.453470	473.625000	34.772546	-903.107096	388.677900	49.653504	-902.549921	
701	3.500000	345.914720	1628.415995	-773.096746	205.731115	1312.714238	-643.055985	489.502820	1310.155702	-856.651353	296.838598	1301.602533	-827.080652	182.987766	892.806975	-757.216197	359.943872	894.396153	-911.213798	363.262253	910.807686	-658.825954	439.885844	906.060843	-717.638465	401.574041	908.434272	-688.232015	211.900276	537.077374	-755.382092	214.617251	447.686162	-635.414705	325.069289	423.933014	-698.808540	238.490526	379.373527	-694.082253	224.672266	86.515223	-617.031823	276.621643	102.569386	-684.081791	292.115230	47.915569	-598.997237	143.017883	32.741936	-694.626363	165.460462	55.449520	-758.099200	359.646905	529.287362	-855.316586	487.408957	441.786451	-832.679765	397.124088	423.613658	-747.957603	435.322085	375.693147	-826.338832	505.030632	89.702565	-811.674105	431.267281	99.831622	-774.018598	501.156575	44.634823	-728.453072	473.624986	34.776695	-903.110439	388.674456	49.658424	-902.552717	
702	3.505000	345.883233	1628.422624	-773.126595	205.722221	1312.713124	-643.040849	489.497288	1310.155195	-856.626024	296.836651	1301.590091	-827.059644	182.996874	892.808156	-757.185757	359.954900	894.404209	-911.188045	363.269130	910.804263	-658.790274	439.893305	906.062999	-717.611461	401.581180	908.433679	-688.200662	211.912874	537.071546	-755.348138	214.627133	447.682331	-635.389518	325.075931	423.930328	-698.787659	238.495348	379.374088	-694.064350	224.665648	86.513561	-617.027336	276.623067	102.568993	-684.078193	292.108956	47.914861	-598.995241	143.017408	32.743198	-694.630105	165.458112	55.452704	-758.100059	359.656668	529.291502	-855.297108	487.417932	441.794798	-832.665139	397.126635	423.613052	-747.947440	435.332008	375.698883	-826.326796	505.108659	89.683943	-811.552163	431.272524	99.827249	-774.010431	501.152954	44.639477	-728.450584	473.623635	34.780877	-903.114618	388.670582	49.664823	-902.555866	
703	3.510000	345.855511	1628.431879	-773.159039	205.712297	1312.716707	-643.022692	489.491480	1310.155517	-856.600331	296.831837	1301.579916	-827.037346	183.006364	892.810237	-757.154159	359.964142	894.412101	-911.160935	363.276564	910.804342	-658.754587	439.899345	906.066800	-717.581915	401.587925	908.435651	-688.168032	211.927271	537.067500	-755.313992	214.642028	447.679232	-635.364458	325.082715	423.929853	-698.765611	238.499983	379.374728	-694.045477	224.658351	86.514697	-617.023110	276.625440	102.574819	-684.078449	292.104344	47.914158	-598.994504	143.016720	32.742799	-694.633376	165.456482	55.456528	-758.099470	359.666676	529.296462	-855.278607	487.426857	441.806040	-832.648796	397.137004	423.607572	-747.930720	435.344726	375.705567	-826.313135	505.218011	89.665053	-811.388446	431.279130	99.823315	-773.998687	501.149432	44.646224	-728.448485	473.621627	34.786191	-903.117414	388.667050	49.670050	-902.557362	
